<?xml version="1.0" encoding="utf-8"?>
<!-- Generator: Adobe Illustrator 18.1.1, SVG Export Plug-In . SVG Version: 6.00 Build 0)  -->
<svg version="1.1" xmlns="http://www.w3.org/2000/svg" xmlns:xlink="http://www.w3.org/1999/xlink" x="0px" y="0px"
	 viewBox="0 0 706.9 324" enable-background="new 0 0 706.9 324" xml:space="preserve">
<g id="meghan">
	<g>
		<path fill="#0B3156" d="M18.6,132.1V47.6h10.7v7.8C34.7,49,41,45.7,48,45.7c2.9,0,5.6,0.9,8.3,2.7c2.7,1.8,4.6,4.1,5.8,6.9
			c2.8-3.1,5.8-5.5,9.1-7.2c3.3-1.6,6.3-2.4,9-2.4c4.3,0,8.1,1.5,11.3,4.5c3.2,3,4.8,6.8,4.8,11.3v70.6H85.8V63.7
			c0-3.5-0.8-6.1-2.4-7.7s-3.7-2.4-6.3-2.4c-4.4,0-8.8,2.3-13.4,6.8v71.7H53.1V63.7c0-6.7-3-10.1-9-10.1c-2.4,0-4.9,0.8-7.6,2.3
			c-2.7,1.5-5.1,3.6-7.4,6.1v70.2H18.6z"/>
		<path fill="#0B3156" d="M111.9,93.2V81.4c0-5.9,0.5-11,1.3-15.3c0.8-4.3,1.8-7.7,3.1-10.3c1.3-2.6,3-4.6,5-6.2
			c2-1.5,4.1-2.6,6.3-3.1c2.2-0.5,4.7-0.8,7.6-0.8c7.6,0,13,2.7,16.3,8s5,13.8,5,25.4c0,3.5,0,6.4-0.1,8.7h-33.9v12.9
			c0,5.6,0.3,10.1,0.8,13.6c0.5,3.6,1.4,6.2,2.6,8c1.2,1.8,2.5,3,3.9,3.6c1.4,0.6,3.2,0.9,5.4,0.9c3.2,0,5.8-1.6,7.9-4.8
			c2.1-3.2,3.2-8.5,3.3-15.9h9.9c-0.3,3.2-0.7,6-1.1,8.5c-0.5,2.5-1.2,5-2.2,7.5c-1,2.5-2.3,4.6-3.7,6.2c-1.5,1.6-3.4,3-5.7,4
			c-2.4,1-5.1,1.6-8.1,1.6c-6,0-10.6-1.2-13.9-3.6c-3.3-2.4-5.7-6.5-7.3-12.4C112.5,112.2,111.8,103.9,111.9,93.2z M122.6,82.6H146
			c0-1.9,0-3.8,0-5.7c0-1.9,0-3.9-0.1-5.8c-0.1-1.9-0.2-3.8-0.4-5.6c-0.2-1.8-0.5-3.4-1-5c-0.5-1.5-1.1-2.9-1.8-4
			c-0.7-1.1-1.7-2-2.9-2.7c-1.2-0.7-2.6-1-4.2-1c-2.6,0-4.7,0.5-6.4,1.4c-1.7,0.9-3,2-3.9,3.3c-0.9,1.3-1.6,3.4-2,6.4
			c-0.4,3-0.7,5.7-0.7,7.9C122.6,74.2,122.6,77.8,122.6,82.6z"/>
		<path fill="#0B3156" d="M177.8,117.3c-0.2,1.1,0.4,1.9,1.9,2.4c1.5,0.5,5.4,1.4,11.6,2.7c1.9,0.4,3.4,0.7,4.5,0.9
			c3.9,0.8,7.2,1.7,9.9,2.6c2.8,0.9,5.4,2.1,7.8,3.5c2.4,1.4,4.2,3.1,5.5,5.1s1.8,4.3,1.8,6.9c0,2.4-0.4,4.5-1.2,6.4
			c-0.8,1.9-1.8,3.5-3,4.8c-1.2,1.3-2.7,2.4-4.5,3.3c-1.8,0.9-3.5,1.7-5.2,2.2c-1.7,0.5-3.5,0.9-5.5,1.2c-2,0.3-3.7,0.5-5.1,0.6
			c-1.4,0.1-2.8,0.1-4.3,0.1c-18.8,0-28.1-3.7-28.1-11.1c0-4.7,1.5-9,4.6-12.6c3.1-3.7,6.8-6.6,11.2-8.9c-0.7-0.1-1.8-0.4-3.4-0.9
			c-1.6-0.4-3.3-1.1-5.3-2.1c-2-0.9-2.9-1.9-2.9-2.8c0-0.6,0.1-1.3,0.2-2c0.2-0.7,0.4-1.5,0.8-2.3c0.4-0.8,0.7-1.6,1.1-2.4
			c0.4-0.8,0.8-1.6,1.4-2.5s1.1-1.7,1.5-2.4c0.4-0.7,0.9-1.5,1.6-2.4c0.6-0.9,1.1-1.6,1.4-2c0.3-0.4,0.8-1,1.3-1.7
			c0.5-0.7,0.8-1.1,0.8-1.2c-3.3-3-5.8-6.9-7.4-11.6c-1.6-4.7-2.4-9.7-2.4-14.8c0-2.7,0.3-5.5,0.8-8.2c0.5-2.7,1.4-5.4,2.6-8.1
			c1.2-2.7,2.8-5.1,4.6-7.2c1.8-2.1,4.1-3.7,6.9-5c2.8-1.3,5.9-1.9,9.3-1.9c4.5,0,8.3,1.1,11.3,3.3c3,2.2,5.9,5.5,8.7,9.8
			c0.9-1.6,1.7-2.8,2.4-3.9c0.7-1,1.6-2.3,2.7-3.7c1.1-1.4,2.4-2.6,3.7-3.5c1.3-0.9,2.7-1.5,4.1-1.9v10.2c-1.8,0.3-3.6,1.1-5.6,2.4
			c-1.9,1.2-3.6,2.7-5.1,4.3c1.8,5,2.7,9.2,2.7,12.8c0,3.4-0.3,6.6-0.8,9.6c-0.6,3-1.5,5.8-2.7,8.5c-1.2,2.7-2.8,5-4.7,6.9
			c-1.9,1.9-4.2,3.4-7,4.5c-2.8,1.1-5.9,1.7-9.3,1.7c-4,0-7.4-0.6-10.2-1.7C180.1,110.1,178.5,114.1,177.8,117.3z M199.7,131.9
			l-15.1-3.2c-2.4,1.7-4.7,4.4-7.1,7.9c-2.4,3.5-3.6,6.5-3.6,9c0,1.1,0.2,2,0.7,2.8s1.3,1.4,2.3,1.9s2,0.8,3,1.1s2.2,0.5,3.8,0.6
			c1.6,0.1,2.9,0.2,3.7,0.2c0.8,0,2.1,0,3.7,0c0.4,0,0.7,0,0.9,0c12.5,0,18.7-3,18.7-9.1c0-3.3-0.9-5.9-2.6-7.6
			C206.6,133.9,203.7,132.7,199.7,131.9z M186.7,97.5c1.8,1.1,3.8,1.6,6.2,1.6c2.4,0,4.4-0.5,6.1-1.6c1.7-1.1,3.1-2.4,4-3.9
			c0.9-1.6,1.7-3.4,2.3-5.5c0.6-2.1,0.9-4,1.1-5.6c0.2-1.6,0.2-3.3,0.2-5c0-1.6-0.1-3.3-0.2-5c-0.1-1.7-0.5-3.6-1.1-5.9
			c-0.6-2.3-1.3-4.3-2.3-6s-2.3-3.1-4-4.4c-1.8-1.2-3.8-1.8-6.2-1.8c-2,0-3.8,0.4-5.3,1.2c-1.6,0.8-2.8,1.9-3.8,3.4
			c-1,1.4-1.8,2.9-2.4,4.5c-0.7,1.6-1.1,3.3-1.4,5.1c-0.3,1.9-0.5,3.5-0.6,4.8c-0.1,1.4-0.2,2.7-0.2,4c0,1.7,0.1,3.4,0.2,5
			c0.1,1.6,0.5,3.5,1.1,5.6c0.6,2.1,1.4,4,2.3,5.5C183.6,95.1,185,96.4,186.7,97.5z"/>
		<path fill="#0B3156" d="M233.3,132.1V10.8h10.6v44.9c2.1-3.3,4.8-5.8,8-7.4c3.2-1.6,6.5-2.5,9.8-2.5c4.3,0,8.1,1.7,11.2,5.2
			c3.2,3.5,4.7,8.4,4.7,14.7v66.4h-10.7V66.3c0-8.5-3-12.7-8.9-12.7c-2.3,0-4.8,0.8-7.4,2.4c-2.6,1.6-4.9,3.7-6.7,6.2v70H233.3z"/>
		<path fill="#0B3156" d="M326.7,132.1l-1.3-10.2c-2.3,3.9-5,7-8.4,9c-3.3,2.1-6.5,3.1-9.5,3.1c-4.4,0-8.3-1.7-11.6-5.2
			c-3.4-3.5-5.1-8-5.1-13.6c0-1.5,0-2.7,0.1-3.6c0-0.9,0.2-2.1,0.4-3.6c0.2-1.5,0.5-2.7,0.9-3.7s1-2.2,1.8-3.6
			c0.8-1.4,1.7-2.7,2.9-3.8c1.1-1.1,2.5-2.4,4.2-3.8c1.7-1.4,3.6-2.8,5.9-4.1c2.2-1.3,4.8-2.7,7.8-4.2c3-1.5,6.3-3,9.9-4.5v-0.7
			c0-4.8-0.2-8.9-0.6-12.3c-0.4-3.4-0.9-6-1.6-7.9c-0.6-1.9-1.4-3.3-2.4-4.3c-1-1-1.9-1.7-2.7-1.9c-0.8-0.3-1.9-0.4-3.1-0.4
			c-1.3,0-2.4,0.2-3.4,0.5c-1,0.4-2,1-3.2,2c-1.1,1-2.1,2.7-2.8,4.9c-0.8,2.3-1.2,5.1-1.4,8.6v0.5h-11c0.6-7.4,2.7-13.2,6.5-17.4
			c3.8-4.2,8.8-6.3,14.9-6.3c3.4,0,6.5,0.6,9.1,1.7c2.6,1.1,4.7,2.5,6.2,4.2c1.5,1.7,2.8,3.8,3.7,6.2c0.9,2.4,1.6,4.7,1.9,7
			s0.5,4.7,0.5,7.3v40.6c0,3,0.1,6.1,0.3,9.3s0.4,5.7,0.7,7.5l0.3,2.7H326.7z M324.6,114.9V85.2c-3.4,2.4-6.1,4.3-8.1,5.8
			c-2,1.5-4.1,3.2-6.2,5.1c-2.2,2-3.8,3.7-4.9,5.3c-1.1,1.6-2,3.4-2.8,5.5s-1.1,4.2-1.1,6.5c0,4,0.8,7,2.5,9c1.7,2,3.7,2.9,6,2.9
			c2.7,0,5.4-1,8.1-2.9C320.9,120.4,323.1,117.9,324.6,114.9z"/>
		<path fill="#0B3156" d="M351,132.1V47.6h10.6v8c2.3-3.3,5-5.8,8.1-7.4c3.2-1.6,6.4-2.5,9.8-2.5c4.2,0,7.9,1.8,11,5.3
			c3.2,3.5,4.8,8.4,4.8,14.8v66.4h-10.7V65.6c0-4.2-0.8-7.2-2.5-9.1c-1.6-1.9-3.8-2.9-6.5-2.9c-2.2,0-4.6,0.8-7.1,2.3
			c-2.5,1.5-4.8,3.6-6.9,6.2v70H351z"/>
	</g>
</g>
<g id="smith">
	<g>
		<path fill="#0B3156" d="M426.4,110.4l8.1-2.8c0.7,2.1,1.5,4.1,2.4,6c1,1.9,2.1,3.9,3.5,5.8c1.4,1.9,3,3.5,4.8,4.7
			c1.9,1.2,3.8,1.8,5.8,1.8c3.7,0,6.5-1.1,8.4-3.4c1.9-2.3,2.8-5.3,2.8-9.2c0-5.4-4.8-12.3-14.5-20.8l-6.1-5.4
			c-4.7-4.1-8.2-7.7-10.5-11c-2.4-3.2-3.6-6.8-3.6-10.8c0-6.3,1.9-11.3,5.8-14.8c3.9-3.5,9-5.3,15.4-5.3c3.1,0,5.8,0.6,8.3,1.8
			c2.5,1.2,4.6,2.8,6.3,4.9c1.7,2.1,3.1,4.4,4.3,6.8c1.2,2.4,2.1,5.1,2.8,8l-9.4,2.9c-0.4-2.6-1.1-5.1-2-7.5
			c-0.9-2.3-2.3-4.5-4.2-6.4c-1.9-1.9-4.1-2.9-6.5-2.9c-3.2,0-5.7,1.1-7.5,3.2c-1.9,2.1-2.8,4.9-2.8,8.3c0,2.8,0.9,5.5,2.7,8
			c1.8,2.5,4.4,5.3,7.9,8.2l6.7,5.8c2.2,1.9,3.8,3.4,5,4.4c1.2,1.1,2.6,2.6,4.4,4.5c1.8,2,3.1,3.7,4,5.3c0.9,1.6,1.7,3.5,2.4,5.7
			c0.7,2.2,1.1,4.5,1.2,6.8c0,6.3-2,11.3-6,14.9c-4,3.6-9.2,5.5-15.6,5.5c-6.2,0-11.4-2.2-15.6-6.5
			C431,122.6,428.1,117.1,426.4,110.4z"/>
		<path fill="#0B3156" d="M483.7,131.6V47.1h10.7v7.8c5.5-6.5,11.8-9.7,18.8-9.7c2.9,0,5.6,0.9,8.3,2.7c2.7,1.8,4.6,4.1,5.8,6.9
			c2.8-3.1,5.8-5.5,9.1-7.2c3.3-1.6,6.3-2.4,9-2.4c4.3,0,8.1,1.5,11.3,4.5c3.2,3,4.8,6.8,4.8,11.3v70.6h-10.6V63.1
			c0-3.5-0.8-6.1-2.4-7.7s-3.7-2.4-6.3-2.4c-4.4,0-8.8,2.3-13.4,6.8v71.7h-10.6V63.1c0-6.7-3-10.1-9-10.1c-2.4,0-4.9,0.8-7.6,2.3
			c-2.7,1.5-5.1,3.6-7.4,6.1v70.2H483.7z"/>
		<path fill="#0B3156" d="M578.7,27.7V15.1h10.6v12.6H578.7z M578.7,131.6V47.1h10.6v84.5H578.7z"/>
		<path fill="#0B3156" d="M609.7,111.6V53h-11.5v-5.9h11.5v-30h10.6v30h13.5V53h-13.5v58.1c0,2,0,3.6,0.1,4.8c0,1.2,0.2,2.4,0.5,3.7
			s0.6,2.3,1.1,3c0.5,0.7,1.2,1.2,2.1,1.7c0.9,0.4,2.1,0.7,3.4,0.7c2.3,0,4.4-0.2,6.2-0.6v7.3c-3.2,0.8-6.2,1.2-9.2,1.2
			c-2.6,0-4.9-0.4-6.8-1.2c-1.9-0.8-3.3-1.8-4.3-3.1c-1-1.2-1.8-2.8-2.4-4.9c-0.6-2-1-3.9-1.1-5.7
			C609.8,116.2,609.7,114.1,609.7,111.6z"/>
		<path fill="#0B3156" d="M645.2,131.6V10.2h10.6V55c2.1-3.3,4.8-5.8,8-7.4c3.2-1.6,6.5-2.5,9.8-2.5c4.3,0,8.1,1.7,11.2,5.2
			c3.2,3.5,4.7,8.4,4.7,14.7v66.4h-10.7V65.7c0-8.5-3-12.7-8.9-12.7c-2.3,0-4.8,0.8-7.4,2.4c-2.6,1.6-4.9,3.7-6.7,6.2v70H645.2z"/>
	</g>
</g>
<g id="_x7B_Solutions_x7D_">
	<g>
		<path fill="#0B3156" d="M54.5,298.3v8.1c-2.7,0-5.1-0.3-7.3-0.9c-2.2-0.6-4.1-1.3-5.8-2.1c-1.6-0.8-3.1-2.1-4.3-3.8
			c-1.2-1.7-2.3-3.2-3.1-4.7c-0.8-1.4-1.5-3.4-2.1-6c-0.6-2.6-1-4.8-1.3-6.6c-0.3-1.8-0.5-4.3-0.6-7.6c-0.1-3.3-0.2-5.9-0.3-7.8
			c0-2,0-4.8,0-8.5c0-3.7-0.6-6.6-1.9-8.5c-1.2-1.9-3.8-2.9-7.6-2.9v-13.5c3.8,0,6.3-1,7.6-2.9c1.2-1.9,1.9-4.8,1.9-8.5
			c0-3.7,0-6.5,0-8.5c0-2,0.1-4.6,0.3-7.8c0.1-3.3,0.4-5.8,0.6-7.6c0.3-1.8,0.7-4,1.3-6.6c0.6-2.6,1.3-4.6,2.1-6
			c0.8-1.4,1.8-3,3.1-4.7c1.2-1.7,2.7-2.9,4.3-3.8c1.6-0.8,3.6-1.5,5.8-2.1c2.2-0.6,4.7-0.9,7.3-0.9v8.1c-2.5,0-4.6,0.3-6.3,0.9
			c-1.7,0.6-3.1,1.7-4.2,3.4c-1.1,1.7-2,3.3-2.6,4.7c-0.6,1.5-1.1,3.9-1.3,7.3c-0.3,3.4-0.4,6.2-0.5,8.5c0,2.3-0.1,5.9-0.1,10.8
			c0,2.7-0.1,5.1-0.4,7.2c-0.3,2.1-0.8,4.2-1.5,6.4c-0.8,2.2-2,4-3.6,5.5c-1.7,1.5-3.7,2.6-6.2,3.4c2.4,0.7,4.5,1.8,6.2,3.3
			c1.7,1.5,2.9,3.3,3.6,5.5c0.8,2.2,1.3,4.3,1.5,6.4c0.3,2.1,0.4,4.5,0.4,7.2c0,4.9,0,8.5,0.1,10.8c0,2.3,0.2,5.1,0.5,8.5
			c0.3,3.4,0.7,5.8,1.3,7.3c0.6,1.5,1.5,3,2.6,4.7c1.1,1.7,2.5,2.8,4.2,3.4C49.9,298,52,298.3,54.5,298.3z"/>
		<path fill="#0B3156" d="M60,272.4l9.6-2.8c0.4,3.5,1.1,6.6,2.1,9.6c1,2.9,2.3,5.7,4,8.2c1.7,2.5,3.9,4.5,6.7,5.9
			c2.8,1.4,5.9,2.2,9.4,2.2c5.6,0,10-1.6,13-4.7c3.1-3.1,4.6-7.5,4.6-13.2c0-4.8-1.4-9.3-4.2-13.8c-2.8-4.4-6.9-9.5-12.4-15.3
			l-19.4-20.4c-4.2-4.5-7.5-8.6-9.7-12.5c-2.3-3.9-3.4-8-3.4-12.2c0-8.1,2.7-14.6,8-19.4s12.2-7.3,20.5-7.3c8.1,0,14.6,2.3,19.6,6.9
			c4.9,4.6,8.2,11.2,9.9,20l0.2,1.2l-9.2,2.9l-0.1-1c-1-6.2-3.2-11.3-6.7-15.2c-3.5-3.9-8-5.9-13.6-5.9c-5.5,0-9.8,1.4-13.1,4.2
			c-3.2,2.8-4.9,6.9-4.9,12.3c0,3.3,0.9,6.5,2.6,9.6c1.8,3.2,4.3,6.5,7.5,10.1l18.2,19.8c0.5,0.5,1.7,1.8,3.6,3.9
			c1.9,2.1,3.2,3.5,3.8,4.1c0.6,0.7,1.7,2,3.3,3.9c1.6,1.9,2.7,3.4,3.3,4.4c0.6,1,1.5,2.4,2.6,4.2c1.1,1.8,1.9,3.4,2.3,4.7
			c0.4,1.3,0.8,2.9,1.2,4.7c0.4,1.8,0.6,3.5,0.6,5.3c0,8.8-2.7,15.6-8.2,20.4c-5.4,4.8-12.5,7.2-21.1,7.2c-4.4,0-8.4-0.9-12-2.6
			c-3.6-1.7-6.6-4-9.1-7c-2.5-3-4.5-6.3-6-10.1C61.8,280.8,60.7,276.8,60,272.4z"/>
		<path fill="#0B3156" d="M131.6,266.4v-51.9c0-4.4,0.3-8.4,1-12c0.6-3.6,1.7-7.1,3.3-10.3c1.5-3.2,3.5-6,5.8-8.2
			c2.4-2.2,5.4-4,9-5.3c3.6-1.3,7.8-1.9,12.5-1.9c4.7,0,8.9,0.6,12.5,1.9c3.6,1.3,6.6,3.1,9,5.3c2.4,2.2,4.3,5,5.8,8.2
			c1.5,3.2,2.6,6.7,3.3,10.3c0.6,3.7,1,7.7,1,12v51.9c0,25.3-10.5,37.9-31.6,37.9C142.1,304.2,131.6,291.6,131.6,266.4z
			 M183.9,268.8V212c0-17.7-6.9-26.6-20.7-26.6c-13.8,0-20.7,8.9-20.7,26.6v56.8c0,17.8,6.9,26.6,20.7,26.6
			C177,295.4,183.9,286.6,183.9,268.8z"/>
		<path fill="#0B3156" d="M213.5,302.3V178.4h10.9v115.1h34.6v8.8H213.5z"/>
		<path fill="#0B3156" d="M267.2,271.8v-93.5h10.9v96c0,7.1,1.6,12.4,4.8,15.9c3.2,3.5,8.6,5.2,16.3,5.2c7.2,0,12.3-1.8,15.4-5.3
			c3.1-3.5,4.6-8.8,4.6-15.8v-96h10.9v93.5c0,21.6-10.3,32.4-30.9,32.4c-4.9,0-9.3-0.6-13.1-1.7c-3.8-1.2-6.8-2.7-9.2-4.6
			c-2.4-1.9-4.3-4.3-5.8-7.1c-1.5-2.8-2.5-5.7-3.1-8.8C267.5,278.9,267.2,275.5,267.2,271.8z"/>
		<path fill="#0B3156" d="M361.6,302.3V187.1h-24.1v-8.8h59.4v8.8h-24.3v115.1H361.6z"/>
		<path fill="#0B3156" d="M404.8,302.3V178.4h10.9v123.9H404.8z"/>
		<path fill="#0B3156" d="M434.5,266.4v-51.9c0-4.4,0.3-8.4,1-12c0.6-3.6,1.7-7.1,3.3-10.3c1.5-3.2,3.5-6,5.8-8.2
			c2.4-2.2,5.4-4,9-5.3c3.6-1.3,7.8-1.9,12.5-1.9s8.9,0.6,12.5,1.9c3.6,1.3,6.6,3.1,9,5.3c2.4,2.2,4.3,5,5.8,8.2
			c1.5,3.2,2.6,6.7,3.3,10.3c0.6,3.7,1,7.7,1,12v51.9c0,25.3-10.5,37.9-31.6,37.9S434.5,291.6,434.5,266.4z M486.8,268.8V212
			c0-17.7-6.9-26.6-20.7-26.6s-20.7,8.9-20.7,26.6v56.8c0,17.8,6.9,26.6,20.7,26.6S486.8,286.6,486.8,268.8z"/>
		<path fill="#0B3156" d="M516.5,302.3V178.4h8.4l39.2,98.1v-98.1h9.3v123.9h-8.2l-39.3-96.1v96.1H516.5z"/>
		<path fill="#0B3156" d="M588.8,272.4l9.6-2.8c0.4,3.5,1.1,6.6,2.1,9.6c1,2.9,2.3,5.7,4,8.2c1.7,2.5,3.9,4.5,6.7,5.9
			c2.8,1.4,5.9,2.2,9.4,2.2c5.6,0,10-1.6,13-4.7c3.1-3.1,4.6-7.5,4.6-13.2c0-4.8-1.4-9.3-4.2-13.8c-2.8-4.4-6.9-9.5-12.4-15.3
			l-19.4-20.4c-4.2-4.5-7.5-8.6-9.7-12.5c-2.3-3.9-3.4-8-3.4-12.2c0-8.1,2.7-14.6,8-19.4c5.3-4.8,12.2-7.3,20.5-7.3
			c8.1,0,14.6,2.3,19.6,6.9c4.9,4.6,8.2,11.2,9.9,20l0.2,1.2l-9.2,2.9l-0.1-1c-1-6.2-3.2-11.3-6.7-15.2c-3.5-3.9-8-5.9-13.6-5.9
			c-5.5,0-9.8,1.4-13.1,4.2c-3.2,2.8-4.9,6.9-4.9,12.3c0,3.3,0.9,6.5,2.6,9.6c1.8,3.2,4.3,6.5,7.5,10.1l18.2,19.8
			c0.5,0.5,1.7,1.8,3.6,3.9c1.9,2.1,3.2,3.5,3.8,4.1c0.6,0.7,1.7,2,3.3,3.9c1.6,1.9,2.7,3.4,3.3,4.4c0.6,1,1.5,2.4,2.6,4.2
			c1.1,1.8,1.9,3.4,2.3,4.7c0.4,1.3,0.8,2.9,1.2,4.7c0.4,1.8,0.6,3.5,0.6,5.3c0,8.8-2.7,15.6-8.2,20.4c-5.4,4.8-12.5,7.2-21.1,7.2
			c-4.4,0-8.4-0.9-12-2.6c-3.6-1.7-6.6-4-9.1-7c-2.5-3-4.5-6.3-6-10.1C590.6,280.8,589.5,276.8,588.8,272.4z"/>
		<path fill="#0B3156" d="M654,306.4v-8.1c2.5,0,4.6-0.3,6.3-0.9c1.7-0.6,3.1-1.7,4.2-3.4c1.1-1.7,2-3.3,2.6-4.7
			c0.6-1.5,1.1-3.9,1.3-7.3c0.3-3.4,0.4-6.2,0.5-8.5c0-2.3,0.1-5.9,0.1-10.8c0-2.7,0.1-5.1,0.4-7.2c0.3-2.1,0.8-4.2,1.5-6.4
			c0.8-2.2,2-4,3.6-5.5c1.7-1.5,3.7-2.6,6.2-3.3c-2.4-0.7-4.5-1.8-6.2-3.4c-1.7-1.5-2.9-3.3-3.6-5.5c-0.8-2.2-1.3-4.3-1.5-6.4
			c-0.3-2.1-0.4-4.5-0.4-7.2c0-4.9,0-8.5-0.1-10.8c0-2.3-0.2-5.1-0.5-8.5c-0.3-3.4-0.7-5.8-1.3-7.3c-0.6-1.5-1.5-3-2.6-4.7
			c-1.1-1.7-2.5-2.8-4.2-3.4c-1.7-0.6-3.8-0.9-6.3-0.9V174c2.7,0,5.1,0.3,7.3,0.9c2.2,0.6,4.1,1.3,5.8,2.1c1.6,0.8,3.1,2.1,4.3,3.8
			c1.2,1.7,2.3,3.2,3.1,4.7c0.8,1.4,1.5,3.4,2.1,6c0.6,2.6,1,4.8,1.3,6.6c0.3,1.8,0.5,4.3,0.6,7.6c0.1,3.3,0.2,5.9,0.3,7.8
			c0,2,0,4.8,0,8.5c0,3.7,0.6,6.6,1.9,8.5c1.2,1.9,3.8,2.9,7.6,2.9V247c-3.8,0-6.3,1-7.6,2.9c-1.2,1.9-1.9,4.8-1.9,8.5
			c0,3.7,0,6.5,0,8.5c0,2-0.1,4.6-0.3,7.8c-0.1,3.3-0.4,5.8-0.6,7.6c-0.3,1.8-0.7,4-1.3,6.6c-0.6,2.6-1.3,4.6-2.1,6
			c-0.8,1.4-1.8,3-3.1,4.7c-1.2,1.7-2.7,2.9-4.3,3.8c-1.6,0.8-3.6,1.5-5.8,2.1C659.1,306.1,656.7,306.4,654,306.4z"/>
	</g>
</g>
</svg>
